<svg width="39" height="39" viewBox="0 0 39 39" fill="none" xmlns="http://www.w3.org/2000/svg">
<path d="M16.6335 27.2945L9.28691 19.948L11.7358 17.4991L16.6335 22.3968L26.4289 12.6014L28.8778 15.0503L16.6335 27.2945Z" fill="#E3DEEC"/>
<path fill-rule="evenodd" clip-rule="evenodd" d="M0.628906 19.825C0.628906 9.30525 9.15682 0.777344 19.6765 0.777344C30.1962 0.777344 38.7241 9.30525 38.7241 19.825C38.7241 30.3447 30.1962 38.8726 19.6765 38.8726C9.15682 38.8726 0.628906 30.3447 0.628906 19.825ZM19.6765 35.4094C11.0695 35.4094 4.09211 28.432 4.09211 19.825C4.09211 11.2179 11.0695 4.24055 19.6765 4.24055C28.2836 4.24055 35.2609 11.2179 35.2609 19.825C35.2609 28.432 28.2836 35.4094 19.6765 35.4094Z" fill="#E3DEEC"/>
</svg>
