<svg width="24" height="24" viewBox="0 0 24 24" fill="none" xmlns="http://www.w3.org/2000/svg">
<path d="M4.5 3.75L19.5 20.25" stroke="#E3DEEC" stroke-width="2" stroke-linecap="round" stroke-linejoin="round"/>
<path d="M10.0391 5.39067C10.6879 5.29621 11.3428 5.24921 11.9984 5.25005C15.6109 5.24033 19.0799 6.66299 21.6453 9.2063" stroke="#E3DEEC" stroke-width="2" stroke-linecap="round" stroke-linejoin="round"/>
<path d="M2.35156 9.20586C3.62319 7.9467 5.12986 6.94968 6.78594 6.27148" stroke="#E3DEEC" stroke-width="2" stroke-linecap="round" stroke-linejoin="round"/>
<path d="M14.2578 10.0312C15.8463 10.4247 17.3 11.2373 18.4672 12.3844" stroke="#E3DEEC" stroke-width="2" stroke-linecap="round" stroke-linejoin="round"/>
<path d="M5.53125 12.3844C6.79684 11.146 8.39118 10.2968 10.125 9.9375" stroke="#E3DEEC" stroke-width="2" stroke-linecap="round" stroke-linejoin="round"/>
<path d="M8.71094 15.5725C9.55639 14.7652 10.6687 14.2964 11.8369 14.255C13.0051 14.2135 14.1479 14.6022 15.0484 15.3475" stroke="#E3DEEC" stroke-width="2" stroke-linecap="round" stroke-linejoin="round"/>
<path d="M12.125 18.75C12.125 18.819 12.069 18.875 12 18.875C11.931 18.875 11.875 18.819 11.875 18.75C11.875 18.681 11.931 18.625 12 18.625C12.069 18.625 12.125 18.681 12.125 18.75Z" fill="#E3DEEC" stroke="#E3DEEC" stroke-width="2"/>
</svg>
