<svg width="29" height="40" viewBox="0 0 29 40" fill="none" xmlns="http://www.w3.org/2000/svg">
<path fill-rule="evenodd" clip-rule="evenodd" d="M9.20399 5.78155C10.6036 4.4083 12.508 3.63184 14.4995 3.63184C16.491 3.63184 18.3953 4.4083 19.795 5.78155C21.1937 7.15386 21.9741 9.00895 21.9741 10.9371V17.2266H7.02488V10.9371C7.02488 9.00895 7.8053 7.15386 9.20399 5.78155ZM4.03644 17.4138C4.02881 17.3524 4.02488 17.29 4.02488 17.2266V10.9371C4.02488 8.19466 5.13553 5.57045 7.10297 3.64013C9.06944 1.71076 11.7306 0.631836 14.4995 0.631836C17.2684 0.631836 19.9295 1.71076 21.896 3.64013C23.8634 5.57045 24.9741 8.19466 24.9741 10.9371V17.2266C24.9741 17.29 24.9702 17.3525 24.9625 17.4138C27.063 18.0062 28.6024 19.9366 28.6024 22.2266V34.8687C28.6024 37.6301 26.3638 39.8687 23.6024 39.8687H5.39648C2.63506 39.8687 0.396484 37.6301 0.396484 34.8687V22.2266C0.396484 19.9366 1.93596 18.0061 4.03644 17.4138Z" fill="#797979"/>
</svg>
