<svg width="50" height="50" viewBox="0 0 50 50" fill="none" xmlns="http://www.w3.org/2000/svg">
<path d="M10.9375 10.9375V21.6992C10.9375 29.4531 17.1484 35.8789 24.9023 35.9375C26.7573 35.9504 28.5964 35.5962 30.3138 34.8952C32.0313 34.1943 33.593 33.1605 34.9092 31.8534C36.2254 30.5463 37.27 28.9917 37.9828 27.2791C38.6956 25.5666 39.0625 23.73 39.0625 21.875V10.9375C39.0625 10.5231 38.8979 10.1257 38.6049 9.83265C38.3118 9.53962 37.9144 9.375 37.5 9.375H12.5C12.0856 9.375 11.6882 9.53962 11.3951 9.83265C11.1021 10.1257 10.9375 10.5231 10.9375 10.9375Z" fill="#E3DEEC" stroke="#E3DEEC" stroke-width="2" stroke-linecap="round" stroke-linejoin="round"/>
<path d="M18.75 43.75H31.25" stroke="#E3DEEC" stroke-width="2" stroke-linecap="round" stroke-linejoin="round"/>
<path d="M25 35.9375V43.75" stroke="#E3DEEC" stroke-width="2" stroke-linecap="round" stroke-linejoin="round"/>
<path d="M38.7109 25H40.625C42.2826 25 43.8723 24.3415 45.0444 23.1694C46.2165 21.9973 46.875 20.4076 46.875 18.75V15.625C46.875 15.2106 46.7104 14.8132 46.4174 14.5201C46.1243 14.2271 45.7269 14.0625 45.3125 14.0625H39.0625" stroke="#E3DEEC" stroke-width="2" stroke-linecap="round" stroke-linejoin="round"/>
<path d="M11.3281 25H9.35547C7.69787 25 6.10815 24.3415 4.93605 23.1694C3.76395 21.9973 3.10547 20.4076 3.10547 18.75V15.625C3.10547 15.2106 3.27009 14.8132 3.56311 14.5201C3.85614 14.2271 4.25357 14.0625 4.66797 14.0625H10.918" stroke="#E3DEEC" stroke-width="2" stroke-linecap="round" stroke-linejoin="round"/>
</svg>
