<svg width="24" height="24" viewBox="0 0 24 24" fill="none" xmlns="http://www.w3.org/2000/svg">
<path d="M5.25 5.25V10.4156C5.25 14.1375 8.23125 17.2219 11.9531 17.25C12.8435 17.2562 13.7263 17.0862 14.5506 16.7497C15.375 16.4133 16.1247 15.917 16.7564 15.2896C17.3882 14.6622 17.8896 13.916 18.2317 13.094C18.5739 12.272 18.75 11.3904 18.75 10.5V5.25C18.75 5.05109 18.671 4.86032 18.5303 4.71967C18.3897 4.57902 18.1989 4.5 18 4.5H6C5.80109 4.5 5.61032 4.57902 5.46967 4.71967C5.32902 4.86032 5.25 5.05109 5.25 5.25Z" fill="#282E4C" stroke="#282E4C" stroke-width="2" stroke-linecap="round" stroke-linejoin="round"/>
<path d="M9 21H15" stroke="#282E4C" stroke-width="2" stroke-linecap="round" stroke-linejoin="round"/>
<path d="M12 17.25V21" stroke="#282E4C" stroke-width="2" stroke-linecap="round" stroke-linejoin="round"/>
<path d="M18.582 12H19.5008C20.2964 12 21.0595 11.6839 21.6221 11.1213C22.1847 10.5587 22.5008 9.79565 22.5008 9V7.5C22.5008 7.30109 22.4218 7.11032 22.2811 6.96967C22.1405 6.82902 21.9497 6.75 21.7508 6.75H18.7508" stroke="#282E4C" stroke-width="2" stroke-linecap="round" stroke-linejoin="round"/>
<path d="M5.43906 12H4.49219C3.69654 12 2.93348 11.6839 2.37087 11.1213C1.80826 10.5587 1.49219 9.79565 1.49219 9V7.5C1.49219 7.30109 1.57121 7.11032 1.71186 6.96967C1.85251 6.82902 2.04328 6.75 2.24219 6.75H5.24219" stroke="#282E4C" stroke-width="2" stroke-linecap="round" stroke-linejoin="round"/>
</svg>
