<svg width="65" height="64" viewBox="0 0 65 64" fill="none" xmlns="http://www.w3.org/2000/svg">
<path d="M14.5 14V27.775C14.5 37.7 22.45 45.925 32.375 46C34.7493 46.0165 37.1034 45.5631 39.3017 44.6659C41.5 43.7687 43.4991 42.4454 45.1838 40.7723C46.8685 39.0992 48.2056 37.1093 49.118 34.9173C50.0304 32.7253 50.5001 30.3744 50.5 28V14C50.5 13.4696 50.2893 12.9609 49.9142 12.5858C49.5391 12.2107 49.0304 12 48.5 12H16.5C15.9696 12 15.4609 12.2107 15.0858 12.5858C14.7107 12.9609 14.5 13.4696 14.5 14Z" fill="#8D8CEC" stroke="#8D8CEC" stroke-width="3" stroke-linecap="round" stroke-linejoin="round"/>
<path d="M24.5 56H40.5" stroke="#8D8CEC" stroke-width="3" stroke-linecap="round" stroke-linejoin="round"/>
<path d="M32.5 46V56" stroke="#8D8CEC" stroke-width="3" stroke-linecap="round" stroke-linejoin="round"/>
<path d="M50.0508 32H52.5008C54.6225 32 56.6573 31.1571 58.1576 29.6569C59.6579 28.1566 60.5008 26.1217 60.5008 24V20C60.5008 19.4696 60.2901 18.9609 59.915 18.5858C59.5399 18.2107 59.0312 18 58.5008 18H50.5008" stroke="#8D8CEC" stroke-width="3" stroke-linecap="round" stroke-linejoin="round"/>
<path d="M14.9996 32H12.4746C10.3529 32 8.31805 31.1571 6.81776 29.6569C5.31746 28.1566 4.47461 26.1217 4.47461 24V20C4.47461 19.4696 4.68532 18.9609 5.0604 18.5858C5.43547 18.2107 5.94418 18 6.47461 18H14.4746" stroke="#8D8CEC" stroke-width="3" stroke-linecap="round" stroke-linejoin="round"/>
</svg>
