<svg width="36" height="36" viewBox="0 0 36 36" fill="none" xmlns="http://www.w3.org/2000/svg">
<path d="M22 24H7" stroke="#E3DEEC" stroke-width="2" stroke-linecap="round" stroke-linejoin="round"/>
<path d="M32 24H28" stroke="#E3DEEC" stroke-width="2" stroke-linecap="round" stroke-linejoin="round"/>
<path d="M25 27C26.6569 27 28 25.6569 28 24C28 22.3431 26.6569 21 25 21C23.3431 21 22 22.3431 22 24C22 25.6569 23.3431 27 25 27Z" stroke="#E3DEEC" stroke-width="2" stroke-linecap="round" stroke-linejoin="round"/>
<path d="M13 12H7" stroke="#E3DEEC" stroke-width="2" stroke-linecap="round" stroke-linejoin="round"/>
<path d="M32 12H19" stroke="#E3DEEC" stroke-width="2" stroke-linecap="round" stroke-linejoin="round"/>
<path d="M16 15C17.6569 15 19 13.6569 19 12C19 10.3431 17.6569 9 16 9C14.3431 9 13 10.3431 13 12C13 13.6569 14.3431 15 16 15Z" stroke="#E3DEEC" stroke-width="2" stroke-linecap="round" stroke-linejoin="round"/>
</svg>
