<svg width="45" height="44" viewBox="0 0 45 44" fill="none" xmlns="http://www.w3.org/2000/svg">
<path d="M11.4992 17.2814H2.07394C1.20873 17.2814 0.509204 17.9812 0.5 18.8558V42.4256C0.5 43.3003 1.20873 44 2.07394 44H11.4992C12.3736 44 13.0731 43.2911 13.0731 42.4256V18.8558C13.0731 17.9812 12.3644 17.2814 11.4992 17.2814ZM27.2109 0H17.7857C16.9205 0 16.2118 0.699728 16.2118 1.56518V42.4256C16.2118 43.3003 16.9205 44 17.7857 44H27.2109C28.0853 44 28.7849 43.2911 28.7849 42.4256V1.57439C28.7849 0.699728 28.0761 0 27.2109 0ZM42.9227 12.5675H33.4975C32.6231 12.5675 31.9235 13.2672 31.9235 14.1419V42.4256C31.9235 43.3003 32.6323 44 33.4975 44H42.9227C43.7971 44 44.4967 43.2911 44.4967 42.4256V14.1419C44.4967 13.2672 43.7879 12.5675 42.9227 12.5675Z" fill="#8D8CEC"/>
</svg>
